<svg width="50" height="92" viewBox="0 0 50 92" fill="none" xmlns="http://www.w3.org/2000/svg">
<path d="M43.6128 0.613281H6.36851C3.56402 0.613281 1.29053 2.88677 1.29053 5.69126V85.5872C1.29053 88.3917 3.56402 90.6652 6.36851 90.6652H43.6128C46.4173 90.6652 48.6908 88.3917 48.6908 85.5872V5.69126C48.6908 2.88677 46.4173 0.613281 43.6128 0.613281Z" stroke="#90CF3F" stroke-linecap="round" stroke-linejoin="round"/>
<path d="M8.4829 35.7085C8.60422 35.0846 8.67354 34.4434 8.82952 33.8368C9.31479 31.9131 10.216 30.2493 11.7585 28.9495C13.041 27.8749 14.8434 27.9096 16.0392 29.1054C17.443 30.4919 18.8468 31.8957 20.2506 33.3169C21.4812 34.5647 21.5331 36.4364 20.3373 37.7363C19.852 38.2735 19.3148 38.7761 18.7948 39.2787C18.7255 39.3481 18.6215 39.4 18.5522 39.4347C19.9907 42.1383 21.8104 44.4087 24.2368 46.1418C25.034 46.7137 25.8832 47.1817 26.6978 47.7189C26.8538 47.8229 26.9404 47.7883 27.0617 47.6669C27.547 47.1817 28.0323 46.6964 28.5175 46.2111C29.8867 44.8593 31.7931 44.8593 33.1449 46.2111C34.4621 47.5283 35.7619 48.8801 37.1137 50.1626C38.5002 51.4798 38.3962 53.2995 37.443 54.634C36.1258 56.4884 34.3061 57.4763 32.0531 57.7189C30.5626 57.8749 29.1241 57.6149 27.703 57.2163C24.7047 56.3844 22.0184 54.8766 19.5921 52.9529C16.2472 50.3012 13.3356 47.2163 10.9266 43.6808C9.85205 42.1037 9.02016 40.3879 8.63888 38.4815C8.55223 38.0656 8.50023 37.6496 8.43091 37.2337C8.43091 36.7311 8.43091 36.2285 8.43091 35.7259L8.4829 35.7085ZM10.32 36.5924C10.372 36.9737 10.4066 37.511 10.4933 38.0309C10.8226 39.7987 11.6198 41.3758 12.6423 42.8489C14.8607 46.0725 17.547 48.8801 20.5799 51.3411C22.7983 53.1262 25.2246 54.5473 27.9629 55.3619C29.4187 55.7952 30.9092 56.0725 32.4517 55.7952C33.9941 55.5179 35.19 54.7207 36.0565 53.4382C36.5245 52.7449 36.4551 52.1037 35.8659 51.5144C34.5314 50.1799 33.2142 48.8628 31.8797 47.5283C31.2212 46.8697 30.4759 46.8697 29.8174 47.5283C29.2454 48.1002 28.6735 48.6721 28.1189 49.2267C27.547 49.7986 26.8884 49.92 26.1952 49.5214C25.3286 49.0361 24.4621 48.5335 23.6475 47.9789C20.7013 45.9858 18.5175 43.3169 16.8711 40.1799C16.5245 39.504 16.6285 38.8628 17.1657 38.3255C17.755 37.7363 18.3616 37.147 18.9508 36.5404C19.5227 35.9512 19.5401 35.1886 18.9855 34.634C17.5817 33.2302 16.1779 31.8264 14.7741 30.4226C14.2715 29.92 13.5609 29.8853 13.0063 30.3359C12.7637 30.5439 12.521 30.7519 12.3131 30.9945C10.9612 32.5716 10.4066 34.4261 10.32 36.6098V36.5924Z" fill="#90CF3F"/>
<path d="M35.5365 39.7813C35.5365 40.3185 35.1553 40.7345 34.6873 40.7691C34.1847 40.8038 33.8208 40.4399 33.6821 39.9199C33.5261 39.2267 33.3702 38.5161 33.0929 37.8749C31.897 35.2232 29.8693 33.5248 27.027 32.7969C26.8537 32.7449 26.6631 32.7276 26.4898 32.7102C25.9698 32.6236 25.6232 32.1556 25.6925 31.6704C25.7619 31.1504 26.2298 30.8038 26.767 30.8905C30.2159 31.4797 32.7462 33.3688 34.4447 36.4017C34.9993 37.4069 35.3806 38.4814 35.5365 39.6253C35.5365 39.6946 35.5539 39.7813 35.5539 39.8159L35.5365 39.7813Z" fill="#90CF3F"/>
<path d="M25.7793 34.6514C26.3339 34.8247 26.9058 34.9633 27.4257 35.1886C29.6614 36.2112 31.1172 37.9096 31.7238 40.3013C31.7758 40.4919 31.8105 40.6826 31.7931 40.8732C31.7585 41.3411 31.3772 41.7051 30.9266 41.7224C30.476 41.7397 30.0774 41.4105 29.9734 40.9425C29.5574 38.8455 28.275 37.4763 26.3339 36.7138C26.0912 36.6098 25.8139 36.5751 25.554 36.5231C25.1034 36.4191 24.7741 35.9859 24.8261 35.5352C24.8781 35.0326 25.2767 34.7034 25.7793 34.7034V34.634V34.6514Z" fill="#90CF3F"/>
<path d="M12.7637 0.613281H37.235V2.88364C37.235 4.25279 36.1259 5.34464 34.774 5.34464H15.2247C13.8555 5.34464 12.7637 4.23546 12.7637 2.88364V0.613281V0.613281Z" stroke="#90CF3F" stroke-linecap="round" stroke-linejoin="round"/>
<path d="M1.29053 79.1573H48.6908" stroke="#90CF3F" stroke-linecap="round" stroke-linejoin="round"/>
</svg>
