<svg width="85" height="91" viewBox="0 0 85 91" fill="none" xmlns="http://www.w3.org/2000/svg">
<g clip-path="url(#clip0_993_275)">
<path d="M77.4914 1.59973H42.7948C39.5883 1.59973 36.9889 4.19911 36.9889 7.40562V83.7487C36.9889 86.9552 39.5883 89.5545 42.7948 89.5545H77.4914C80.6979 89.5545 83.2973 86.9552 83.2973 83.7487V7.40562C83.2973 4.19911 80.6979 1.59973 77.4914 1.59973Z" stroke="#90CF3F" stroke-linecap="round" stroke-linejoin="round"/>
<path d="M48.1847 1.59973H72.1015V3.33283C72.1015 4.08206 71.8038 4.80059 71.2741 5.33037C70.7443 5.86016 70.0257 6.15778 69.2765 6.15778H51.0443C50.2951 6.15778 49.5765 5.86016 49.0468 5.33037C48.517 4.80059 48.2194 4.08206 48.2194 3.33283V1.59973H48.1847Z" stroke="#90CF3F" stroke-linecap="round" stroke-linejoin="round"/>
<path d="M36.9889 78.3068H83.2973" stroke="#90CF3F" stroke-linecap="round" stroke-linejoin="round"/>
<path d="M25.9144 1.59973H6.20905C3.69171 1.59973 1.651 3.64044 1.651 6.15778V40.2652C1.651 42.7825 3.69171 44.8232 6.20905 44.8232H25.9144C28.4317 44.8232 30.4725 42.7825 30.4725 40.2652V6.15778C30.4725 3.64044 28.4317 1.59973 25.9144 1.59973Z" stroke="#90CF3F" stroke-linecap="round" stroke-linejoin="round"/>
<path d="M7.7168 40.941V34.2686C7.7168 32.0715 8.5896 29.9644 10.1432 28.4108C11.6968 26.8572 13.8039 25.9844 16.001 25.9844V25.9844C17.0904 25.9821 18.1695 26.1947 19.1766 26.61C20.1837 27.0253 21.099 27.6352 21.8701 28.4046C22.6411 29.1741 23.2529 30.0882 23.6703 31.0944C24.0877 32.1006 24.3026 33.1793 24.3026 34.2686V40.941" stroke="#90CF3F" stroke-linecap="round" stroke-linejoin="round"/>
<path d="M16.0531 25.9845C20.0349 25.9845 23.2628 22.7566 23.2628 18.7748C23.2628 14.793 20.0349 11.5651 16.0531 11.5651C12.0713 11.5651 8.84338 14.793 8.84338 18.7748C8.84338 22.7566 12.0713 25.9845 16.0531 25.9845Z" stroke="#90CF3F" stroke-linecap="round" stroke-linejoin="round"/>
<path d="M12.7255 21.5304C13.1266 22.0294 13.6346 22.432 14.212 22.7086C14.7894 22.9853 15.4214 23.1289 16.0617 23.1289C16.7019 23.1289 17.334 22.9853 17.9114 22.7086C18.4888 22.432 18.9967 22.0294 19.3979 21.5304" stroke="#90CF3F" stroke-linecap="round" stroke-linejoin="round"/>
<path d="M47.9421 70.8024V60.993C47.9421 57.7755 49.2203 54.6898 51.4954 52.4146C53.7706 50.1395 56.8563 48.8613 60.0738 48.8613V48.8613C63.2914 48.8613 66.3771 50.1395 68.6522 52.4146C70.9274 54.6898 72.2055 57.7755 72.2055 60.993V70.8024" stroke="#90CF3F" stroke-linecap="round" stroke-linejoin="round"/>
<path d="M60.1951 48.792C66.0529 48.792 70.8016 44.0433 70.8016 38.1854C70.8016 32.3276 66.0529 27.5789 60.1951 27.5789C54.3372 27.5789 49.5885 32.3276 49.5885 38.1854C49.5885 44.0433 54.3372 48.792 60.1951 48.792Z" stroke="#90CF3F" stroke-linecap="round" stroke-linejoin="round"/>
<path d="M55.2904 42.3276C55.8818 43.0587 56.6291 43.6483 57.4777 44.0534C58.3263 44.4584 59.2548 44.6686 60.1951 44.6686C61.1354 44.6686 62.0638 44.4584 62.9124 44.0534C63.761 43.6483 64.5084 43.0587 65.0998 42.3276" stroke="#90CF3F" stroke-linecap="round" stroke-linejoin="round"/>
<path d="M16.0184 49.26V52.4836" stroke="#90CF3F" stroke-linecap="round" stroke-linejoin="round"/>
<path d="M16.0184 57.5269V65.0658" stroke="#90CF3F" stroke-linecap="round" stroke-linejoin="round" stroke-dasharray="2.9 2.9"/>
<path d="M16.0184 67.5789V70.8024H19.2593" stroke="#90CF3F" stroke-linecap="round" stroke-linejoin="round"/>
<path d="M26.209 70.8024H36.6596" stroke="#90CF3F" stroke-linecap="round" stroke-linejoin="round" stroke-dasharray="4.02 4.02"/>
<path d="M40.1432 70.8024H43.3668" stroke="#90CF3F" stroke-linecap="round" stroke-linejoin="round"/>
</g>
<defs>
<clipPath id="clip0_993_275">
<rect width="83.3794" height="89.6879" fill="white" transform="translate(0.784424 0.733154)"/>
</clipPath>
</defs>
</svg>
