<svg width="52" height="69" viewBox="0 0 52 69" fill="none" xmlns="http://www.w3.org/2000/svg">
<g clip-path="url(#clip0_15_606)">
<path d="M35.7617 36.8586V63.9097C35.7617 66.3403 33.791 68.311 31.3604 68.311H5.05813C2.62759 68.311 0.656891 66.3403 0.656891 63.9097V6.04992C0.656891 3.61938 2.62759 1.64868 5.05813 1.64868H19.8384" stroke="#90CF3F" stroke-linecap="round" stroke-linejoin="round"/>
<path d="M18.0253 5.15653H11.2855C10.1031 5.15653 9.14404 4.19746 9.14404 3.01504V1.64868H20.8369" stroke="#90CF3F" stroke-linecap="round" stroke-linejoin="round"/>
<path d="M0.656891 59.7975H35.7617" stroke="#90CF3F" stroke-linecap="round" stroke-linejoin="round"/>
<path opacity="0.35" d="M29.6131 42.6656H6.79233C6.01595 42.6656 5.38657 43.2949 5.38657 44.0713V48.9849C5.38657 49.7613 6.01595 50.3907 6.79233 50.3907H29.6131C30.3895 50.3907 31.0188 49.7613 31.0188 48.9849V44.0713C31.0188 43.2949 30.3895 42.6656 29.6131 42.6656Z" fill="#90CF3F"/>
<path opacity="0.35" d="M26.5388 33.1536L21.9142 34.6251C20.6924 35.0061 19.3523 34.6908 18.4589 33.7711C17.6575 32.9566 17.3553 31.7873 17.5918 30.6837H6.80549C6.03034 30.6837 5.39972 31.3143 5.39972 32.0895V36.9899C5.39972 37.7651 6.03034 38.3957 6.80549 38.3957H29.6131C30.3882 38.3957 31.0188 37.7651 31.0188 36.9899V34.8878C29.4554 34.5068 27.9446 33.9156 26.5256 33.1536H26.5388Z" fill="#90CF3F"/>
<path opacity="0.35" d="M19.1027 26.0066C17.7757 23.76 16.9218 21.3032 16.5933 18.715H6.80549C6.03034 18.715 5.39972 19.3456 5.39972 20.1207V25.0212C5.39972 25.7964 6.03034 26.427 6.80549 26.427H18.9581L19.1027 26.0066Z" fill="#90CF3F"/>
<path d="M35.6697 0.453125C26.9329 0.453125 19.8384 7.56079 19.8384 16.2844C19.8384 19.7529 20.9551 22.9585 22.8601 25.5599L20.8894 31.4457L26.9723 29.5013C29.4817 31.1567 32.464 32.1157 35.6828 32.1157C44.4065 32.1157 51.5141 25.0081 51.5141 16.2844C51.5141 7.56079 44.4065 0.453125 35.6697 0.453125Z" fill="#90CF3F"/>
<path d="M44.8795 22.814C44.4985 23.8913 42.9876 24.7847 41.7657 25.0475C40.9381 25.2183 39.8607 25.3628 36.2215 23.8519C31.5706 21.9206 28.5752 17.191 28.3387 16.8888C28.1154 16.5866 26.46 14.3794 26.46 12.1065C26.46 9.83367 27.6161 8.73007 28.0759 8.2571C28.4569 7.86296 29.0876 7.69217 29.6919 7.69217C29.889 7.69217 30.0598 7.69217 30.2174 7.70531C30.6773 7.73158 30.9137 7.75786 31.2291 8.49359C31.6101 9.41325 32.5429 11.6861 32.648 11.9226C32.7662 12.1591 32.8713 12.4744 32.7137 12.7766C32.5691 13.0919 32.4378 13.2364 32.2013 13.4992C31.9648 13.7751 31.7414 13.9721 31.5181 14.2612C31.3079 14.5108 31.0583 14.7867 31.3342 15.2465C31.6101 15.7064 32.5297 17.2172 33.8961 18.4391C35.6697 20.0156 37.1018 20.5149 37.6141 20.7251C37.9951 20.8827 38.455 20.8433 38.7309 20.5543C39.0856 20.1733 39.5191 19.5427 39.9658 18.912C40.2812 18.4653 40.6753 18.4128 41.0957 18.5704C41.5293 18.715 43.789 19.8317 44.2488 20.0682C44.7087 20.3047 45.024 20.4098 45.1291 20.6068C45.2342 20.8039 45.2342 21.7236 44.8532 22.8009" fill="white"/>
</g>
<defs>
<clipPath id="clip0_15_606">
<rect width="51.501" height="68.5279" fill="white" transform="translate(0 0.453125)"/>
</clipPath>
</defs>
</svg>
