<svg width="255" height="38" viewBox="0 0 255 38" fill="none" xmlns="http://www.w3.org/2000/svg">
<path d="M110.741 13.0969C109.432 13.0969 108.35 12.019 108.342 10.699C108.342 9.38644 109.418 8.30116 110.727 8.29383C112.072 8.29383 113.118 9.33511 113.126 10.6844C113.126 11.997 112.051 13.0823 110.734 13.0896M43.2633 28.7015H47.5053L47.9734 15.8908L52.296 23.4731H54.5925L58.6444 15.7735L59.2295 28.6575H63.6837L62.7256 8.93913H58.4762L53.4881 18.208L48.3318 8.96846H44.119L43.2487 28.6942L43.2633 28.7015ZM77.4192 24.4264C77.1047 24.6684 76.6074 24.947 75.9199 25.2697C75.2324 25.5923 74.3401 25.761 73.2357 25.761C72.1166 25.761 71.239 25.4823 70.5953 24.925C69.9517 24.3604 69.6226 23.7078 69.6006 22.9598L79.4452 22.9378V22.2265C79.4452 21.0606 79.2916 19.9899 78.9917 19.022C78.6918 18.054 78.253 17.2107 77.6752 16.5141C77.0974 15.8175 76.3806 15.2748 75.5395 14.8788C74.6911 14.4902 73.7111 14.2922 72.5847 14.2995C71.4657 14.2995 70.4637 14.5049 69.586 14.9082C68.701 15.3115 67.955 15.8541 67.348 16.5214C66.7409 17.1961 66.2801 17.9807 65.951 18.8753C65.6292 19.7699 65.4683 20.7086 65.4756 21.6692C65.4756 22.7765 65.6511 23.7811 66.0022 24.6977C66.346 25.6143 66.8506 26.399 67.5089 27.0443C68.1671 27.6969 68.9717 28.2029 69.9151 28.5622C70.8586 28.9288 71.9192 29.1048 73.0967 29.1048C73.9817 29.1048 74.7643 29.0168 75.4518 28.8482C76.1393 28.6722 76.7317 28.4815 77.229 28.2689C77.7337 28.0489 78.136 27.8289 78.4505 27.6016C78.765 27.3743 78.999 27.2129 79.1599 27.1103L77.4119 24.4264H77.4192ZM69.6006 20.2466C69.6006 19.9459 69.6665 19.6526 69.7908 19.3446C69.9151 19.0366 70.1053 18.758 70.3467 18.5013C70.588 18.2447 70.9025 18.032 71.2755 17.8634C71.6485 17.6947 72.0801 17.614 72.5701 17.614C73.0601 17.614 73.4843 17.6947 73.8427 17.8634C74.1938 18.032 74.4937 18.2374 74.7277 18.494C74.9691 18.7507 75.1446 19.0293 75.2616 19.3373C75.3859 19.6453 75.4445 19.9459 75.4445 20.2393L69.608 20.2539L69.6006 20.2466ZM93.8682 28.5842L106.806 28.5549V24.903L98.315 24.9177L98.2785 8.85847H93.8316L93.8755 28.5769L93.8682 28.5842ZM108.664 28.5475H112.906L112.87 14.6735H110.749L108.628 14.6809L108.664 28.5402V28.5475ZM127.271 9.70909C126.642 9.18112 125.94 8.80714 125.179 8.58715C124.411 8.37449 123.658 8.2645 122.912 8.27183C122.202 8.27183 121.515 8.38916 120.835 8.61648C120.154 8.8438 119.555 9.18845 119.021 9.65776C118.494 10.1197 118.063 10.7064 117.748 11.4177C117.426 12.129 117.265 12.9796 117.265 13.9622V14.6735H115.027V18.01H117.273L117.302 28.5329H121.515L121.493 18.0027H124.762L124.755 14.6589H121.485V13.8962C121.485 13.2069 121.661 12.6716 122.012 12.305C122.363 11.931 122.839 11.7403 123.424 11.7403C123.797 11.7403 124.162 11.799 124.513 11.9163C124.864 12.0336 125.194 12.2023 125.486 12.415L127.278 9.72376L127.271 9.70909ZM90.5623 24.8957C90.2917 25.0937 89.9918 25.2624 89.6773 25.4163C89.3628 25.563 88.9898 25.6363 88.5583 25.6363C87.9878 25.6363 87.5709 25.4603 87.3076 25.0937C87.037 24.727 86.9053 24.2137 86.9053 23.5464V18.076L90.4599 18.0687V14.7322L86.8834 14.7395V11.0217L82.6267 11.029V14.7395H80.4472V18.0834H82.6413L82.656 23.3118C82.656 24.1771 82.7437 24.969 82.9266 25.6803C83.1094 26.3916 83.402 26.9929 83.8116 27.4916C84.2285 27.9902 84.7697 28.3862 85.4352 28.6722C86.1081 28.9582 86.9273 29.0975 87.9147 29.0975C89.4872 29.0975 90.9426 28.5549 92.2737 27.4916L90.555 24.8957H90.5623ZM137.539 24.2797C137.225 24.5144 136.728 24.8004 136.04 25.123C135.353 25.4457 134.46 25.6143 133.356 25.6143C132.237 25.6143 131.359 25.3357 130.716 24.7784C130.072 24.2211 129.743 23.5611 129.721 22.8131L139.565 22.7911V22.0798C139.565 20.9212 139.412 19.8506 139.112 18.8753C138.812 17.9 138.373 17.0641 137.795 16.3674C137.21 15.6708 136.501 15.1208 135.652 14.7322C134.804 14.3362 133.824 14.1455 132.705 14.1455C131.586 14.1455 130.584 14.3509 129.699 14.7615C128.814 15.1722 128.068 15.7075 127.461 16.3821C126.854 17.0567 126.393 17.834 126.064 18.7287C125.742 19.6306 125.581 20.5619 125.581 21.5225C125.581 22.6225 125.764 23.6344 126.108 24.5511C126.452 25.4603 126.956 26.245 127.615 26.8976C128.273 27.5502 129.077 28.0489 130.021 28.4155C130.964 28.7749 132.032 28.9582 133.202 28.9508C134.087 28.9508 134.87 28.8628 135.565 28.6942C136.252 28.5255 136.845 28.3275 137.342 28.1149C137.839 27.8949 138.249 27.6749 138.563 27.4476C138.878 27.2203 139.112 27.0589 139.273 26.9563L137.525 24.2724L137.539 24.2797ZM129.721 20.0999C129.721 19.8066 129.787 19.506 129.911 19.198C130.035 18.89 130.226 18.6113 130.467 18.3547C130.708 18.098 131.023 17.8854 131.396 17.7167C131.769 17.5481 132.2 17.4601 132.69 17.4601C133.18 17.4601 133.605 17.5407 133.956 17.7094C134.307 17.8707 134.607 18.0834 134.841 18.34C135.082 18.5967 135.258 18.8753 135.375 19.1833C135.492 19.4913 135.557 19.7919 135.557 20.0853L129.721 20.0999Z" fill="#1A1413"/>
<path d="M17.0645 13.3903C20.4142 17.8121 22.4109 23.3338 22.4182 29.3175C22.4182 30.7621 22.3085 32.1774 22.0891 33.5633L31.7581 33.5413C32.5992 33.5413 33.2794 32.852 33.2794 32.0087L33.2135 5.21402C33.2135 4.21673 32.2701 3.48343 31.3119 3.74009C25.5413 5.28001 20.5532 8.74118 17.0645 13.3976" fill="#90CF3F"/>
<path d="M12.1279 33.5853C11.9012 32.2067 11.7842 30.7841 11.7769 29.3395C11.7622 23.3557 13.7297 17.8267 17.0575 13.3902C13.5468 8.74844 8.54411 5.3166 2.76613 3.79867C1.80801 3.54935 0.871826 4.28998 0.871826 5.28727L0.937651 32.082C0.937651 32.9253 1.61784 33.6073 2.46626 33.6073L12.1352 33.5853H12.1279Z" fill="#0091DD"/>
<path d="M17.0645 13.3901C13.7367 17.8266 11.7693 23.3557 11.7839 29.3394C11.7839 30.784 11.9082 32.1992 12.135 33.5779L22.0965 33.5558C22.3159 32.1772 22.4329 30.7547 22.4256 29.3101C22.411 23.3263 20.4143 17.8046 17.0718 13.3828" fill="#0061A4"/>
<path d="M191.522 18.4207C191.522 24.5584 187.807 27.8069 183.265 27.8069C178.723 27.8069 175.271 24.1551 175.271 18.758C175.271 13.3609 178.782 9.3938 183.528 9.3938C188.275 9.3938 191.522 13.1263 191.522 18.4134M177.728 18.6994C177.728 22.5052 179.784 25.9223 183.397 25.9223C187.01 25.9223 189.094 22.5638 189.094 18.516C189.094 14.9669 187.251 11.271 183.426 11.271C179.601 11.271 177.728 14.7909 177.728 18.6994Z" fill="#0090CE"/>
<path d="M194.427 18.7139C194.427 17.2106 194.397 15.9127 194.324 14.7174H196.357L196.438 17.2326H196.54C197.118 15.5167 198.515 14.4314 200.073 14.4314C200.336 14.4314 200.519 14.4607 200.731 14.5047V16.6973C200.49 16.646 200.256 16.6166 199.941 16.6166C198.303 16.6166 197.14 17.8632 196.826 19.6085C196.774 19.9238 196.723 20.2978 196.723 20.6938V27.5134H194.427V18.7065V18.7139Z" fill="#0090CE"/>
<path d="M205.748 11.117C205.77 11.9089 205.192 12.5469 204.271 12.5469C203.452 12.5469 202.874 11.9089 202.874 11.117C202.874 10.325 203.481 9.66504 204.329 9.66504C205.178 9.66504 205.755 10.2957 205.755 11.117M203.166 14.7101H205.492V27.5062H203.166V14.7175V14.7101Z" fill="#0090CE"/>
<path d="M210.627 21.5444C210.679 24.6902 212.683 25.9882 215.008 25.9882C216.669 25.9882 217.678 25.6949 218.548 25.3282L218.943 26.9928C218.124 27.3594 216.727 27.7848 214.701 27.7848C210.774 27.7848 208.426 25.1962 208.426 21.3317C208.426 17.4673 210.693 14.4314 214.409 14.4314C218.578 14.4314 219.689 18.1052 219.689 20.4591C219.689 20.9358 219.631 21.3024 219.609 21.5444H210.642H210.627ZM217.437 19.8798C217.466 18.3985 216.83 16.096 214.219 16.096C211.871 16.096 210.847 18.2665 210.657 19.8798H217.437Z" fill="#0090CE"/>
<path d="M222.548 18.1859C222.548 16.8659 222.519 15.7807 222.446 14.7174H224.501L224.633 16.8366H224.691C225.32 15.6193 226.798 14.4314 228.912 14.4314C230.681 14.4314 233.424 15.4873 233.424 19.8798V27.5208H231.098V20.1365C231.098 18.0759 230.33 16.36 228.144 16.36C226.615 16.36 225.43 17.4453 225.035 18.7359C224.933 19.0292 224.874 19.4252 224.874 19.8211V27.5208H222.556V18.1859H222.548Z" fill="#0090CE"/>
<path d="M239.875 11.0435V14.7173H243.203V16.4919H239.875V23.3922C239.875 24.9835 240.321 25.8781 241.616 25.8781C242.223 25.8781 242.676 25.7974 242.962 25.7168L243.064 27.462C242.618 27.6453 241.908 27.7773 241.009 27.7773C239.926 27.7773 239.056 27.4327 238.5 26.802C237.842 26.1127 237.608 24.9761 237.608 23.4729V16.4919H235.626V14.7173H237.608V11.6521L239.875 11.0435Z" fill="#0090CE"/>
<path d="M252.879 27.5134L252.696 25.9002H252.616C251.906 26.9048 250.531 27.8068 248.717 27.8068C246.128 27.8068 244.812 25.9809 244.812 24.1329C244.812 21.0384 247.554 19.3445 252.484 19.3738V19.1098C252.484 18.0539 252.199 16.1473 249.588 16.1473C248.403 16.1473 247.16 16.514 246.26 17.0933L245.733 15.5607C246.787 14.8714 248.315 14.4241 249.931 14.4241C253.83 14.4241 254.788 17.0933 254.788 19.6598V24.4483C254.788 25.5629 254.839 26.6408 255 27.5134H252.886H252.879ZM252.535 20.9798C250.005 20.9284 247.123 21.3757 247.123 23.8616C247.123 25.3649 248.125 26.0835 249.31 26.0835C250.97 26.0835 252.031 25.0276 252.396 23.9423C252.469 23.7003 252.528 23.4436 252.528 23.2017V20.9798H252.535Z" fill="#0090CE"/>
<path d="M157.959 0H156.738V37.2882H157.959V0Z" fill="#0090CE"/>
</svg>
