<svg width="573" height="84" viewBox="0 0 573 84" fill="none" xmlns="http://www.w3.org/2000/svg">
<path d="M12.345 22.655C15.6317 22.655 18.3233 23.6467 20.42 25.63C22.5167 27.6133 23.565 30.0217 23.565 32.855C23.565 35.745 22.5167 38.1533 20.42 40.08C18.3233 41.95 15.6317 42.885 12.345 42.885C9.05833 42.885 6.36667 41.95 4.27 40.08C2.17333 38.1533 1.125 35.745 1.125 32.855C1.125 30.0217 2.17333 27.6133 4.27 25.63C6.36667 23.6467 9.05833 22.655 12.345 22.655ZM23.82 83.09H0.87L4.695 46.285H19.995L23.82 83.09ZM78.1735 38.89C81.6869 40.1933 84.4069 42.0917 86.3335 44.585C88.2602 47.0783 89.2235 50.0817 89.2235 53.595C89.2235 58.8083 87.0702 62.86 82.7635 65.75C78.4569 68.5833 72.2235 70 64.0635 70H30.5735V10.5H62.3635C70.2969 10.5 76.2752 11.9167 80.2985 14.75C84.3785 17.5833 86.4185 21.3517 86.4185 26.055C86.4185 28.8317 85.7102 31.325 84.2935 33.535C82.9335 35.745 80.8935 37.53 78.1735 38.89ZM50.2935 24.525V33.365H59.6435C64.0069 33.365 66.1885 31.8917 66.1885 28.945C66.1885 25.9983 64.0069 24.525 59.6435 24.525H50.2935ZM62.3635 55.975C66.7835 55.975 68.9935 54.4167 68.9935 51.3C68.9935 48.1833 66.7835 46.625 62.3635 46.625H50.2935V55.975H62.3635ZM95.7207 23.505H114.931V70H95.7207V23.505ZM105.326 19.765C101.869 19.765 99.064 18.8583 96.9107 17.045C94.814 15.175 93.7657 12.8233 93.7657 9.99C93.7657 7.15666 94.814 4.83333 96.9107 3.02C99.064 1.15 101.869 0.214997 105.326 0.214997C108.839 0.214997 111.644 1.09333 113.741 2.85C115.837 4.60666 116.886 6.87333 116.886 9.65C116.886 12.5967 115.837 15.0333 113.741 16.96C111.644 18.83 108.839 19.765 105.326 19.765ZM172.915 46.71C172.915 46.9933 172.83 48.495 172.66 51.215H140.36C141.04 52.9717 142.174 54.3317 143.76 55.295C145.347 56.2017 147.33 56.655 149.71 56.655C151.75 56.655 153.45 56.4 154.81 55.89C156.227 55.38 157.757 54.5017 159.4 53.255L169.43 63.37C164.897 68.3567 158.125 70.85 149.115 70.85C143.505 70.85 138.575 69.83 134.325 67.79C130.075 65.6933 126.789 62.8033 124.465 59.12C122.142 55.4367 120.98 51.3 120.98 46.71C120.98 42.0633 122.114 37.9267 124.38 34.3C126.704 30.6167 129.849 27.755 133.815 25.715C137.839 23.675 142.344 22.655 147.33 22.655C152.034 22.655 156.312 23.59 160.165 25.46C164.075 27.33 167.164 30.0783 169.43 33.705C171.754 37.3317 172.915 41.6667 172.915 46.71ZM147.5 35.745C145.517 35.745 143.874 36.2833 142.57 37.36C141.267 38.4367 140.417 39.9667 140.02 41.95H154.98C154.584 40.0233 153.734 38.5217 152.43 37.445C151.127 36.3117 149.484 35.745 147.5 35.745ZM211.278 22.655C217.001 22.655 221.591 24.3833 225.048 27.84C228.561 31.2967 230.318 36.51 230.318 43.48V70H211.108V46.795C211.108 41.4683 209.209 38.805 205.413 38.805C203.259 38.805 201.503 39.57 200.143 41.1C198.839 42.5733 198.188 44.925 198.188 48.155V70H178.978V23.505H197.253V28.095C199.066 26.2817 201.163 24.9217 203.543 24.015C205.923 23.1083 208.501 22.655 211.278 22.655ZM289.595 23.505L270.895 70H251.005L232.305 23.505H252.025L261.375 48.41L271.405 23.505H289.595ZM340.757 46.71C340.757 46.9933 340.672 48.495 340.502 51.215H308.202C308.882 52.9717 310.015 54.3317 311.602 55.295C313.189 56.2017 315.172 56.655 317.552 56.655C319.592 56.655 321.292 56.4 322.652 55.89C324.069 55.38 325.599 54.5017 327.242 53.255L337.272 63.37C332.739 68.3567 325.967 70.85 316.957 70.85C311.347 70.85 306.417 69.83 302.167 67.79C297.917 65.6933 294.63 62.8033 292.307 59.12C289.984 55.4367 288.822 51.3 288.822 46.71C288.822 42.0633 289.955 37.9267 292.222 34.3C294.545 30.6167 297.69 27.755 301.657 25.715C305.68 23.675 310.185 22.655 315.172 22.655C319.875 22.655 324.154 23.59 328.007 25.46C331.917 27.33 335.005 30.0783 337.272 33.705C339.595 37.3317 340.757 41.6667 340.757 46.71ZM315.342 35.745C313.359 35.745 311.715 36.2833 310.412 37.36C309.109 38.4367 308.259 39.9667 307.862 41.95H322.822C322.425 40.0233 321.575 38.5217 320.272 37.445C318.969 36.3117 317.325 35.745 315.342 35.745ZM379.119 22.655C384.843 22.655 389.433 24.3833 392.889 27.84C396.403 31.2967 398.159 36.51 398.159 43.48V70H378.949V46.795C378.949 41.4683 377.051 38.805 373.254 38.805C371.101 38.805 369.344 39.57 367.984 41.1C366.681 42.5733 366.029 44.925 366.029 48.155V70H346.819V23.505H365.094V28.095C366.908 26.2817 369.004 24.9217 371.384 24.015C373.764 23.1083 376.343 22.655 379.119 22.655ZM406.502 23.505H425.712V70H406.502V23.505ZM416.107 19.765C412.65 19.765 409.845 18.8583 407.692 17.045C405.595 15.175 404.547 12.8233 404.547 9.99C404.547 7.15666 405.595 4.83333 407.692 3.02C409.845 1.15 412.65 0.214997 416.107 0.214997C419.62 0.214997 422.425 1.09333 424.522 2.85C426.619 4.60666 427.667 6.87333 427.667 9.65C427.667 12.5967 426.619 15.0333 424.522 16.96C422.425 18.83 419.62 19.765 416.107 19.765ZM485.652 6.93V70H467.377V66.175C464.6 69.2917 460.35 70.85 454.627 70.85C450.547 70.85 446.778 69.8867 443.322 67.96C439.922 65.9767 437.202 63.1433 435.162 59.46C433.178 55.7767 432.187 51.5267 432.187 46.71C432.187 41.8933 433.178 37.6717 435.162 34.045C437.202 30.3617 439.922 27.5567 443.322 25.63C446.778 23.6467 450.547 22.655 454.627 22.655C459.783 22.655 463.722 23.9867 466.442 26.65V6.93H485.652ZM459.217 55.89C461.427 55.89 463.24 55.0967 464.657 53.51C466.073 51.8667 466.782 49.6 466.782 46.71C466.782 43.82 466.073 41.5817 464.657 39.995C463.24 38.4083 461.427 37.615 459.217 37.615C457.007 37.615 455.193 38.4083 453.777 39.995C452.36 41.5817 451.652 43.82 451.652 46.71C451.652 49.6 452.36 51.8667 453.777 53.51C455.193 55.0967 457.007 55.89 459.217 55.89ZM518.723 70.85C513.567 70.85 508.92 69.83 504.783 67.79C500.703 65.6933 497.502 62.8317 495.178 59.205C492.855 55.5217 491.693 51.3567 491.693 46.71C491.693 42.0633 492.855 37.9267 495.178 34.3C497.502 30.6167 500.703 27.755 504.783 25.715C508.92 23.675 513.567 22.655 518.723 22.655C523.937 22.655 528.583 23.675 532.663 25.715C536.8 27.755 540.002 30.6167 542.268 34.3C544.592 37.9267 545.753 42.0633 545.753 46.71C545.753 51.3567 544.592 55.5217 542.268 59.205C540.002 62.8317 536.8 65.6933 532.663 67.79C528.583 69.83 523.937 70.85 518.723 70.85ZM518.723 55.89C520.933 55.89 522.747 55.0967 524.163 53.51C525.58 51.8667 526.288 49.6 526.288 46.71C526.288 43.82 525.58 41.5817 524.163 39.995C522.747 38.4083 520.933 37.615 518.723 37.615C516.513 37.615 514.7 38.4083 513.283 39.995C511.867 41.5817 511.158 43.82 511.158 46.71C511.158 49.6 511.867 51.8667 513.283 53.51C514.7 55.0967 516.513 55.89 518.723 55.89ZM549.386 10.5H572.336L568.511 47.22H553.211L549.386 10.5ZM560.861 70.85C557.574 70.85 554.882 69.8583 552.786 67.875C550.689 65.8917 549.641 63.4833 549.641 60.65C549.641 57.76 550.689 55.38 552.786 53.51C554.882 51.5833 557.574 50.62 560.861 50.62C564.147 50.62 566.839 51.5833 568.936 53.51C571.032 55.38 572.081 57.76 572.081 60.65C572.081 63.4833 571.032 65.8917 568.936 67.875C566.839 69.8583 564.147 70.85 560.861 70.85Z" fill="white" fill-opacity="0.15"/>
<path d="M20.42 25.63L19.3892 26.7197L20.42 25.63ZM20.42 40.08L21.4184 41.1994L21.4267 41.192L21.4349 41.1845L20.42 40.08ZM4.27 40.08L3.25506 41.1845L3.26326 41.192L3.27158 41.1994L4.27 40.08ZM4.27 25.63L5.3008 26.7197H5.3008L4.27 25.63ZM23.82 83.09V84.59H25.484L25.312 82.9349L23.82 83.09ZM0.87 83.09L-0.621964 82.9349L-0.793968 84.59H0.87V83.09ZM4.695 46.285V44.785H3.34281L3.20304 46.1299L4.695 46.285ZM19.995 46.285L21.487 46.1299L21.3472 44.785H19.995V46.285ZM12.345 24.155C15.3056 24.155 17.6101 25.0368 19.3892 26.7197L21.4508 24.5403C19.0365 22.2565 15.9577 21.155 12.345 21.155V24.155ZM19.3892 26.7197C21.1927 28.4257 22.065 30.4426 22.065 32.855H25.065C25.065 29.6008 23.8407 26.801 21.4508 24.5403L19.3892 26.7197ZM22.065 32.855C22.065 35.3323 21.1874 37.3377 19.4051 38.9755L21.4349 41.1845C23.8459 38.969 25.065 36.1577 25.065 32.855H22.065ZM19.4216 38.9606C17.6455 40.5446 15.3298 41.385 12.345 41.385V44.385C15.9336 44.385 19.0012 43.3554 21.4184 41.1994L19.4216 38.9606ZM12.345 41.385C9.36024 41.385 7.0445 40.5446 5.26842 38.9606L3.27158 41.1994C5.68884 43.3554 8.75643 44.385 12.345 44.385V41.385ZM5.28494 38.9755C3.50261 37.3377 2.625 35.3323 2.625 32.855H-0.375C-0.375 36.1577 0.844052 38.969 3.25506 41.1845L5.28494 38.9755ZM2.625 32.855C2.625 30.4426 3.49733 28.4257 5.3008 26.7197L3.2392 24.5403C0.849339 26.801 -0.375 29.6008 -0.375 32.855H2.625ZM5.3008 26.7197C7.07986 25.0368 9.38436 24.155 12.345 24.155V21.155C8.73231 21.155 5.65347 22.2565 3.2392 24.5403L5.3008 26.7197ZM23.82 81.59H0.87V84.59H23.82V81.59ZM2.36196 83.2451L6.18696 46.4401L3.20304 46.1299L-0.621964 82.9349L2.36196 83.2451ZM4.695 47.785H19.995V44.785H4.695V47.785ZM18.503 46.4401L22.328 83.2451L25.312 82.9349L21.487 46.1299L18.503 46.4401ZM78.1735 38.89L77.5027 37.5484L74.4111 39.0942L77.6518 40.2963L78.1735 38.89ZM86.3335 44.585L87.5204 43.6678L86.3335 44.585ZM82.7635 65.75L83.588 67.0032L83.5993 66.9955L82.7635 65.75ZM30.5735 70H29.0735V71.5H30.5735V70ZM30.5735 10.5V9H29.0735V10.5H30.5735ZM80.2985 14.75L79.4348 15.9764L79.4429 15.9821L80.2985 14.75ZM84.2935 33.535L83.0307 32.7255L83.0233 32.7371L83.016 32.7489L84.2935 33.535ZM50.2935 24.525V23.025H48.7935V24.525H50.2935ZM50.2935 33.365H48.7935V34.865H50.2935V33.365ZM50.2935 46.625V45.125H48.7935V46.625H50.2935ZM50.2935 55.975H48.7935V57.475H50.2935V55.975ZM77.6518 40.2963C80.9523 41.5207 83.4216 43.2699 85.1466 45.5022L87.5204 43.6678C85.3921 40.9134 82.4214 38.8659 78.6952 37.4836L77.6518 40.2963ZM85.1466 45.5022C86.847 47.7027 87.7235 50.3733 87.7235 53.595H90.7235C90.7235 49.79 89.6734 46.454 87.5204 43.6678L85.1466 45.5022ZM87.7235 53.595C87.7235 58.3115 85.8167 61.8948 81.9277 64.5045L83.5993 66.9955C88.3237 63.8252 90.7235 59.3051 90.7235 53.595H87.7235ZM81.9391 64.4969C77.9816 67.1005 72.0871 68.5 64.0635 68.5V71.5C72.3599 71.5 78.9321 70.0662 83.5879 67.0031L81.9391 64.4969ZM64.0635 68.5H30.5735V71.5H64.0635V68.5ZM32.0735 70V10.5H29.0735V70H32.0735ZM30.5735 12H62.3635V9H30.5735V12ZM62.3635 12C70.1611 12 75.7765 13.4001 79.4349 15.9764L81.1622 13.5236C76.7739 10.4333 70.4326 9 62.3635 9V12ZM79.4429 15.9821C83.1461 18.5537 84.9185 21.8749 84.9185 26.055H87.9185C87.9185 20.8284 85.6109 16.613 81.1541 13.5179L79.4429 15.9821ZM84.9185 26.055C84.9185 28.5621 84.2834 30.7713 83.0307 32.7255L85.5563 34.3445C87.137 31.8787 87.9185 29.1013 87.9185 26.055H84.9185ZM83.016 32.7489C81.8262 34.6824 80.0163 36.2916 77.5027 37.5484L78.8443 40.2316C81.7707 38.7684 84.0409 36.8076 85.571 34.3211L83.016 32.7489ZM48.7935 24.525V33.365H51.7935V24.525H48.7935ZM50.2935 34.865H59.6435V31.865H50.2935V34.865ZM59.6435 34.865C61.947 34.865 63.9383 34.4847 65.3918 33.5031C66.9501 32.4507 67.6885 30.8471 67.6885 28.945H64.6885C64.6885 29.9896 64.3361 30.596 63.7128 31.0169C62.9846 31.5087 61.7034 31.865 59.6435 31.865V34.865ZM67.6885 28.945C67.6885 27.0429 66.9501 25.4393 65.3918 24.3869C63.9383 23.4053 61.947 23.025 59.6435 23.025V26.025C61.7034 26.025 62.9846 26.3813 63.7128 26.8731C64.3361 27.294 64.6885 27.9004 64.6885 28.945H67.6885ZM59.6435 23.025H50.2935V26.025H59.6435V23.025ZM62.3635 57.475C64.704 57.475 66.7276 57.0707 68.2004 56.0321C69.7692 54.926 70.4935 53.2603 70.4935 51.3H67.4935C67.4935 52.4563 67.1129 53.1282 66.4716 53.5804C65.7344 54.1002 64.443 54.475 62.3635 54.475V57.475ZM70.4935 51.3C70.4935 49.3397 69.7692 47.674 68.2004 46.5679C66.7276 45.5293 64.704 45.125 62.3635 45.125V48.125C64.443 48.125 65.7344 48.4998 66.4716 49.0196C67.1129 49.4718 67.4935 50.1437 67.4935 51.3H70.4935ZM62.3635 45.125H50.2935V48.125H62.3635V45.125ZM48.7935 46.625V55.975H51.7935V46.625H48.7935ZM50.2935 57.475H62.3635V54.475H50.2935V57.475ZM95.7207 23.505V22.005H94.2207V23.505H95.7207ZM114.931 23.505H116.431V22.005H114.931V23.505ZM114.931 70V71.5H116.431V70H114.931ZM95.7207 70H94.2207V71.5H95.7207V70ZM96.9107 17.045L95.9123 18.1644L95.9282 18.1786L95.9445 18.1924L96.9107 17.045ZM96.9107 3.02L97.8919 4.15454L97.8942 4.15255L96.9107 3.02ZM113.741 2.85L112.777 3.99978V3.99978L113.741 2.85ZM113.741 16.96L114.739 18.0794L114.747 18.072L114.756 18.0645L113.741 16.96ZM95.7207 25.005H114.931V22.005H95.7207V25.005ZM113.431 23.505V70H116.431V23.505H113.431ZM114.931 68.5H95.7207V71.5H114.931V68.5ZM97.2207 70V23.505H94.2207V70H97.2207ZM105.326 18.265C102.139 18.265 99.7021 17.4347 97.8769 15.8976L95.9445 18.1924C98.4259 20.282 101.599 21.265 105.326 21.265V18.265ZM97.9091 15.9256C96.1347 14.3429 95.2657 12.3999 95.2657 9.99H92.2657C92.2657 13.2467 93.4934 16.0071 95.9123 18.1644L97.9091 15.9256ZM95.2657 9.99C95.2657 7.58117 96.133 5.6758 97.8919 4.15454L95.9295 1.88545C93.4951 3.99086 92.2657 6.73216 92.2657 9.99H95.2657ZM97.8942 4.15255C99.7198 2.56721 102.15 1.715 105.326 1.715V-1.285C101.588 -1.285 98.4083 -0.26722 95.9272 1.88745L97.8942 4.15255ZM105.326 1.715C108.589 1.715 111.02 2.5273 112.777 3.99978L114.704 1.70022C112.268 -0.340642 109.089 -1.285 105.326 -1.285V1.715ZM112.777 3.99978C114.528 5.46649 115.386 7.30935 115.386 9.65H118.386C118.386 6.43731 117.147 3.74683 114.704 1.70022L112.777 3.99978ZM115.386 9.65C115.386 12.1934 114.501 14.2239 112.726 15.8555L114.756 18.0645C117.173 15.8427 118.386 12.9999 118.386 9.65H115.386ZM112.742 15.8406C110.984 17.4084 108.567 18.265 105.326 18.265V21.265C109.111 21.265 112.304 20.2516 114.739 18.0794L112.742 15.8406ZM172.66 51.215V52.715H174.069L174.157 51.3086L172.66 51.215ZM140.36 51.215V49.715H138.171L138.961 51.7565L140.36 51.215ZM143.76 55.295L142.982 56.5772L142.999 56.5875L143.016 56.5974L143.76 55.295ZM154.81 55.89L154.302 54.4787L154.293 54.482L154.284 54.4855L154.81 55.89ZM159.4 53.255L160.465 52.1988L159.54 51.2659L158.494 52.06L159.4 53.255ZM169.43 63.37L170.54 64.379L171.498 63.3252L170.495 62.3138L169.43 63.37ZM134.325 67.79L133.662 69.1352L133.669 69.1388L133.676 69.1423L134.325 67.79ZM124.465 59.12L125.734 58.3197L124.465 59.12ZM124.38 34.3L123.112 33.4997L123.108 33.505L124.38 34.3ZM133.815 25.715L133.137 24.3771L133.129 24.3811L133.815 25.715ZM160.165 25.46L159.51 26.8095L159.518 26.8132L160.165 25.46ZM169.43 33.705L168.158 34.5L168.163 34.5071L168.167 34.5141L169.43 33.705ZM142.57 37.36L143.526 38.5164V38.5164L142.57 37.36ZM140.02 41.95L138.549 41.6558L138.191 43.45H140.02V41.95ZM154.98 41.95V43.45H156.821L156.449 41.6475L154.98 41.95ZM152.43 37.445L151.446 38.5769L151.46 38.5894L151.475 38.6014L152.43 37.445ZM171.415 46.71C171.415 46.7098 171.415 46.7123 171.415 46.718C171.415 46.7235 171.415 46.731 171.415 46.7408C171.414 46.7606 171.413 46.7864 171.412 46.8192C171.41 46.8848 171.406 46.9711 171.401 47.0796C171.391 47.2962 171.375 47.5905 171.354 47.964C171.312 48.7104 171.248 49.7624 171.163 51.1214L174.157 51.3086C174.325 48.6285 174.415 47.0547 174.415 46.71H171.415ZM172.66 49.715H140.36V52.715H172.66V49.715ZM138.961 51.7565C139.759 53.8168 141.108 55.4394 142.982 56.5772L144.539 54.0128C143.239 53.2239 142.322 52.1266 141.759 50.6735L138.961 51.7565ZM143.016 56.5974C144.888 57.667 147.146 58.155 149.71 58.155V55.155C147.514 55.155 145.806 54.7364 144.505 53.9926L143.016 56.5974ZM149.71 58.155C151.863 58.155 153.755 57.8876 155.337 57.2945L154.284 54.4855C153.145 54.9124 151.638 55.155 149.71 55.155V58.155ZM155.318 57.3013C156.92 56.7248 158.584 55.7571 160.307 54.45L158.494 52.06C156.93 53.2462 155.534 54.0352 154.302 54.4787L155.318 57.3013ZM158.335 54.3112L168.365 64.4262L170.495 62.3138L160.465 52.1988L158.335 54.3112ZM168.32 62.361C164.158 66.9394 157.852 69.35 149.115 69.35V72.35C158.399 72.35 165.636 69.774 170.54 64.379L168.32 62.361ZM149.115 69.35C143.688 69.35 138.987 68.3637 134.974 66.4377L133.676 69.1423C138.164 71.2963 143.323 72.35 149.115 72.35V69.35ZM134.989 66.4448C130.964 64.4593 127.897 61.7486 125.734 58.3197L123.197 59.9203C125.68 63.8581 129.186 66.9273 133.662 69.1352L134.989 66.4448ZM125.734 58.3197C123.57 54.8892 122.48 51.0328 122.48 46.71H119.48C119.48 51.5672 120.714 55.9842 123.197 59.9203L125.734 58.3197ZM122.48 46.71C122.48 42.3192 123.547 38.4627 125.652 35.095L123.108 33.505C120.68 37.3906 119.48 41.8074 119.48 46.71H122.48ZM125.649 35.1003C127.826 31.6494 130.767 28.9694 134.501 27.0489L133.129 24.3811C128.93 26.5406 125.582 29.5839 123.112 33.4997L125.649 35.1003ZM134.494 27.0528C138.285 25.1303 142.554 24.155 147.33 24.155V21.155C142.133 21.155 137.392 22.2197 133.137 24.3771L134.494 27.0528ZM147.33 24.155C151.829 24.155 155.881 25.0479 159.51 26.8095L160.82 24.1105C156.743 22.1321 152.238 21.155 147.33 21.155V24.155ZM159.518 26.8132C163.175 28.562 166.045 31.1184 168.158 34.5L170.702 32.91C168.282 29.0383 164.976 26.098 160.812 24.1068L159.518 26.8132ZM168.167 34.5141C170.311 37.8604 171.415 41.9036 171.415 46.71H174.415C174.415 41.4298 173.196 36.8029 170.693 32.8959L168.167 34.5141ZM147.5 34.245C145.232 34.245 143.232 34.8676 141.615 36.2036L143.526 38.5164C144.515 37.6991 145.802 37.245 147.5 37.245V34.245ZM141.615 36.2036C139.996 37.5409 139 39.4034 138.549 41.6558L141.491 42.2442C141.834 40.5299 142.538 39.3325 143.526 38.5164L141.615 36.2036ZM140.02 43.45H154.98V40.45H140.02V43.45ZM156.449 41.6475C155.996 39.4433 154.994 37.6176 153.386 36.2886L151.475 38.6014C152.473 39.4257 153.172 40.6033 153.511 42.2525L156.449 41.6475ZM153.415 36.3131C151.798 34.9075 149.788 34.245 147.5 34.245V37.245C149.179 37.245 150.456 37.7159 151.446 38.5769L153.415 36.3131ZM225.048 27.84L223.987 28.9007L223.996 28.9092L225.048 27.84ZM230.318 70V71.5H231.818V70H230.318ZM211.108 70H209.608V71.5H211.108V70ZM200.143 41.1L199.021 40.1035L199.019 40.1061L200.143 41.1ZM198.188 70V71.5H199.688V70H198.188ZM178.978 70H177.478V71.5H178.978V70ZM178.978 23.505V22.005H177.478V23.505H178.978ZM197.253 23.505H198.753V22.005H197.253V23.505ZM197.253 28.095H195.753V31.7163L198.313 29.1557L197.253 28.095ZM203.543 24.015L204.077 25.4167L203.543 24.015ZM211.278 24.155C216.676 24.155 220.859 25.7732 223.987 28.9007L226.108 26.7793C222.322 22.9935 217.325 21.155 211.278 21.155V24.155ZM223.996 28.9092C227.121 31.9842 228.818 36.7433 228.818 43.48H231.818C231.818 36.2767 230.001 30.6091 226.1 26.7708L223.996 28.9092ZM228.818 43.48V70H231.818V43.48H228.818ZM230.318 68.5H211.108V71.5H230.318V68.5ZM212.608 70V46.795H209.608V70H212.608ZM212.608 46.795C212.608 43.9989 212.117 41.6326 210.905 39.9319C209.626 38.1377 207.706 37.305 205.413 37.305V40.305C206.915 40.305 207.843 40.804 208.462 41.6731C209.148 42.6358 209.608 44.2645 209.608 46.795H212.608ZM205.413 37.305C202.856 37.305 200.682 38.2348 199.021 40.1035L201.264 42.0965C202.323 40.9052 203.662 40.305 205.413 40.305V37.305ZM199.019 40.1061C197.359 41.9827 196.688 44.7787 196.688 48.155H199.688C199.688 45.0713 200.319 43.1639 201.266 42.0939L199.019 40.1061ZM196.688 48.155V70H199.688V48.155H196.688ZM198.188 68.5H178.978V71.5H198.188V68.5ZM180.478 70V23.505H177.478V70H180.478ZM178.978 25.005H197.253V22.005H178.978V25.005ZM195.753 23.505V28.095H198.753V23.505H195.753ZM198.313 29.1557C199.978 27.4908 201.896 26.2476 204.077 25.4167L203.009 22.6133C200.43 23.5958 198.154 25.0725 196.192 27.0343L198.313 29.1557ZM204.077 25.4167C206.271 24.5807 208.667 24.155 211.278 24.155V21.155C208.335 21.155 205.574 21.636 203.009 22.6133L204.077 25.4167ZM289.595 23.505L290.987 24.0647L291.815 22.005H289.595V23.505ZM270.895 70V71.5H271.909L272.287 70.5597L270.895 70ZM251.005 70L249.613 70.5597L249.992 71.5H251.005V70ZM232.305 23.505V22.005H230.085L230.913 24.0647L232.305 23.505ZM252.025 23.505L253.429 22.9778L253.064 22.005H252.025V23.505ZM261.375 48.41L259.971 48.9372L261.326 52.5471L262.766 48.9704L261.375 48.41ZM271.405 23.505V22.005H270.392L270.014 22.9446L271.405 23.505ZM288.203 22.9453L269.503 69.4403L272.287 70.5597L290.987 24.0647L288.203 22.9453ZM270.895 68.5H251.005V71.5H270.895V68.5ZM252.397 69.4403L233.697 22.9453L230.913 24.0647L249.613 70.5597L252.397 69.4403ZM232.305 25.005H252.025V22.005H232.305V25.005ZM250.621 24.0322L259.971 48.9372L262.779 47.8828L253.429 22.9778L250.621 24.0322ZM262.766 48.9704L272.796 24.0654L270.014 22.9446L259.984 47.8496L262.766 48.9704ZM271.405 25.005H289.595V22.005H271.405V25.005ZM340.502 51.215V52.715H341.911L341.999 51.3086L340.502 51.215ZM308.202 51.215V49.715H306.013L306.803 51.7565L308.202 51.215ZM311.602 55.295L310.824 56.5772L310.841 56.5875L310.858 56.5974L311.602 55.295ZM322.652 55.89L322.144 54.4787L322.135 54.482L322.125 54.4855L322.652 55.89ZM327.242 53.255L328.307 52.1988L327.382 51.2659L326.336 52.06L327.242 53.255ZM337.272 63.37L338.382 64.379L339.34 63.3252L338.337 62.3138L337.272 63.37ZM302.167 67.79L301.503 69.1352L301.511 69.1388L301.518 69.1423L302.167 67.79ZM292.307 59.12L293.576 58.3197L292.307 59.12ZM292.222 34.3L290.953 33.4997L290.95 33.505L292.222 34.3ZM301.657 25.715L300.979 24.3771L300.971 24.3811L301.657 25.715ZM328.007 25.46L327.352 26.8095L327.36 26.8132L328.007 25.46ZM337.272 33.705L336 34.5L336.005 34.5071L336.009 34.5141L337.272 33.705ZM310.412 37.36L311.367 38.5164V38.5164L310.412 37.36ZM307.862 41.95L306.391 41.6558L306.032 43.45H307.862V41.95ZM322.822 41.95V43.45H324.662L324.291 41.6475L322.822 41.95ZM320.272 37.445L319.288 38.5769L319.302 38.5894L319.317 38.6014L320.272 37.445ZM339.257 46.71C339.257 46.7098 339.257 46.7123 339.257 46.718C339.257 46.7235 339.257 46.731 339.257 46.7408C339.256 46.7606 339.255 46.7864 339.254 46.8192C339.252 46.8848 339.248 46.9711 339.243 47.0796C339.233 47.2962 339.217 47.5905 339.196 47.964C339.154 48.7104 339.09 49.7624 339.005 51.1214L341.999 51.3086C342.167 48.6285 342.257 47.0547 342.257 46.71H339.257ZM340.502 49.715H308.202V52.715H340.502V49.715ZM306.803 51.7565C307.601 53.8168 308.95 55.4394 310.824 56.5772L312.381 54.0128C311.081 53.2239 310.163 52.1266 309.601 50.6735L306.803 51.7565ZM310.858 56.5974C312.73 57.667 314.988 58.155 317.552 58.155V55.155C315.356 55.155 313.648 54.7364 312.346 53.9926L310.858 56.5974ZM317.552 58.155C319.705 58.155 321.597 57.8876 323.179 57.2945L322.125 54.4855C320.987 54.9124 319.479 55.155 317.552 55.155V58.155ZM323.16 57.3013C324.762 56.7248 326.426 55.7571 328.149 54.45L326.336 52.06C324.772 53.2462 323.376 54.0352 322.144 54.4787L323.16 57.3013ZM326.177 54.3112L336.207 64.4262L338.337 62.3138L328.307 52.1988L326.177 54.3112ZM336.162 62.361C332 66.9394 325.694 69.35 316.957 69.35V72.35C326.241 72.35 333.478 69.774 338.382 64.379L336.162 62.361ZM316.957 69.35C311.53 69.35 306.829 68.3637 302.816 66.4377L301.518 69.1423C306.005 71.2963 311.165 72.35 316.957 72.35V69.35ZM302.831 66.4448C298.806 64.4593 295.739 61.7486 293.576 58.3197L291.038 59.9203C293.522 63.8581 297.028 66.9273 301.503 69.1352L302.831 66.4448ZM293.576 58.3197C291.412 54.8892 290.322 51.0328 290.322 46.71H287.322C287.322 51.5672 288.556 55.9842 291.038 59.9203L293.576 58.3197ZM290.322 46.71C290.322 42.3192 291.389 38.4627 293.494 35.095L290.95 33.505C288.522 37.3906 287.322 41.8074 287.322 46.71H290.322ZM293.491 35.1003C295.668 31.6494 298.609 28.9694 302.343 27.0489L300.971 24.3811C296.772 26.5406 293.423 29.5839 290.953 33.4997L293.491 35.1003ZM302.335 27.0528C306.127 25.1303 310.396 24.155 315.172 24.155V21.155C309.975 21.155 305.234 22.2197 300.979 24.3771L302.335 27.0528ZM315.172 24.155C319.671 24.155 323.722 25.0479 327.352 26.8095L328.662 24.1105C324.585 22.1321 320.08 21.155 315.172 21.155V24.155ZM327.36 26.8132C331.017 28.562 333.887 31.1184 336 34.5L338.544 32.91C336.124 29.0383 332.818 26.098 328.654 24.1068L327.36 26.8132ZM336.009 34.5141C338.153 37.8604 339.257 41.9036 339.257 46.71H342.257C342.257 41.4298 341.038 36.8029 338.535 32.8959L336.009 34.5141ZM315.342 34.245C313.073 34.245 311.074 34.8676 309.457 36.2036L311.367 38.5164C312.357 37.6991 313.644 37.245 315.342 37.245V34.245ZM309.457 36.2036C307.838 37.5409 306.842 39.4034 306.391 41.6558L309.333 42.2442C309.676 40.5299 310.38 39.3325 311.367 38.5164L309.457 36.2036ZM307.862 43.45H322.822V40.45H307.862V43.45ZM324.291 41.6475C323.837 39.4433 322.836 37.6176 321.227 36.2886L319.317 38.6014C320.315 39.4257 321.013 40.6033 321.353 42.2525L324.291 41.6475ZM321.256 36.3131C319.64 34.9075 317.63 34.245 315.342 34.245V37.245C317.021 37.245 318.298 37.7159 319.288 38.5769L321.256 36.3131ZM392.889 27.84L391.829 28.9007L391.837 28.9092L392.889 27.84ZM398.159 70V71.5H399.659V70H398.159ZM378.949 70H377.449V71.5H378.949V70ZM367.984 41.1L366.863 40.1035L366.861 40.1061L367.984 41.1ZM366.029 70V71.5H367.529V70H366.029ZM346.819 70H345.319V71.5H346.819V70ZM346.819 23.505V22.005H345.319V23.505H346.819ZM365.094 23.505H366.594V22.005H365.094V23.505ZM365.094 28.095H363.594V31.7163L366.155 29.1557L365.094 28.095ZM371.384 24.015L371.918 25.4167L371.384 24.015ZM379.119 24.155C384.518 24.155 388.701 25.7732 391.829 28.9007L393.95 26.7793C390.164 22.9935 385.167 21.155 379.119 21.155V24.155ZM391.837 28.9092C394.963 31.9842 396.659 36.7433 396.659 43.48H399.659C399.659 36.2767 397.843 30.6091 393.941 26.7708L391.837 28.9092ZM396.659 43.48V70H399.659V43.48H396.659ZM398.159 68.5H378.949V71.5H398.159V68.5ZM380.449 70V46.795H377.449V70H380.449ZM380.449 46.795C380.449 43.9989 379.959 41.6326 378.747 39.9319C377.468 38.1377 375.548 37.305 373.254 37.305V40.305C374.757 40.305 375.685 40.804 376.304 41.6731C376.99 42.6358 377.449 44.2645 377.449 46.795H380.449ZM373.254 37.305C370.698 37.305 368.524 38.2348 366.863 40.1035L369.105 42.0965C370.164 40.9052 371.504 40.305 373.254 40.305V37.305ZM366.861 40.1061C365.201 41.9827 364.529 44.7787 364.529 48.155H367.529C367.529 45.0713 368.161 43.1639 369.108 42.0939L366.861 40.1061ZM364.529 48.155V70H367.529V48.155H364.529ZM366.029 68.5H346.819V71.5H366.029V68.5ZM348.319 70V23.505H345.319V70H348.319ZM346.819 25.005H365.094V22.005H346.819V25.005ZM363.594 23.505V28.095H366.594V23.505H363.594ZM366.155 29.1557C367.82 27.4908 369.737 26.2476 371.918 25.4167L370.85 22.6133C368.271 23.5958 365.995 25.0725 364.034 27.0343L366.155 29.1557ZM371.918 25.4167C374.113 24.5807 376.509 24.155 379.119 24.155V21.155C376.177 21.155 373.416 21.636 370.85 22.6133L371.918 25.4167ZM406.502 23.505V22.005H405.002V23.505H406.502ZM425.712 23.505H427.212V22.005H425.712V23.505ZM425.712 70V71.5H427.212V70H425.712ZM406.502 70H405.002V71.5H406.502V70ZM407.692 17.045L406.694 18.1644L406.709 18.1786L406.726 18.1924L407.692 17.045ZM407.692 3.02L408.673 4.15454L408.675 4.15255L407.692 3.02ZM424.522 2.85L423.559 3.99978V3.99978L424.522 2.85ZM424.522 16.96L425.52 18.0794L425.529 18.072L425.537 18.0645L424.522 16.96ZM406.502 25.005H425.712V22.005H406.502V25.005ZM424.212 23.505V70H427.212V23.505H424.212ZM425.712 68.5H406.502V71.5H425.712V68.5ZM408.002 70V23.505H405.002V70H408.002ZM416.107 18.265C412.92 18.265 410.483 17.4347 408.658 15.8976L406.726 18.1924C409.207 20.282 412.38 21.265 416.107 21.265V18.265ZM408.69 15.9256C406.916 14.3429 406.047 12.3999 406.047 9.99H403.047C403.047 13.2467 404.275 16.0071 406.694 18.1644L408.69 15.9256ZM406.047 9.99C406.047 7.58117 406.914 5.6758 408.673 4.15454L406.711 1.88545C404.276 3.99086 403.047 6.73216 403.047 9.99H406.047ZM408.675 4.15255C410.501 2.56721 412.932 1.715 416.107 1.715V-1.285C412.369 -1.285 409.19 -0.26722 406.708 1.88745L408.675 4.15255ZM416.107 1.715C419.37 1.715 421.801 2.5273 423.559 3.99978L425.485 1.70022C423.049 -0.340642 419.87 -1.285 416.107 -1.285V1.715ZM423.559 3.99978C425.309 5.46649 426.167 7.30935 426.167 9.65H429.167C429.167 6.43731 427.928 3.74683 425.485 1.70022L423.559 3.99978ZM426.167 9.65C426.167 12.1934 425.283 14.2239 423.507 15.8555L425.537 18.0645C427.955 15.8427 429.167 12.9999 429.167 9.65H426.167ZM423.524 15.8406C421.766 17.4084 419.348 18.265 416.107 18.265V21.265C419.893 21.265 423.085 20.2516 425.52 18.0794L423.524 15.8406ZM485.652 6.93H487.152V5.43H485.652V6.93ZM485.652 70V71.5H487.152V70H485.652ZM467.377 70H465.877V71.5H467.377V70ZM467.377 66.175H468.877V62.2364L466.257 65.1772L467.377 66.175ZM443.322 67.96L442.566 69.2557L442.578 69.2631L442.591 69.2702L443.322 67.96ZM435.162 59.46L433.841 60.1712L433.845 60.179L433.849 60.1867L435.162 59.46ZM435.162 34.045L433.849 33.3182L433.846 33.3253L435.162 34.045ZM443.322 25.63L444.061 26.9351L444.068 26.931L443.322 25.63ZM466.442 26.65L465.392 27.7218L467.942 30.2181V26.65H466.442ZM466.442 6.93V5.43H464.942V6.93H466.442ZM464.657 53.51L465.775 54.509L465.784 54.4993L465.793 54.4894L464.657 53.51ZM453.777 39.995L452.658 38.996L453.777 39.995ZM453.777 53.51L452.64 54.4894L452.649 54.4993L452.658 54.509L453.777 53.51ZM484.152 6.93V70H487.152V6.93H484.152ZM485.652 68.5H467.377V71.5H485.652V68.5ZM468.877 70V66.175H465.877V70H468.877ZM466.257 65.1772C463.859 67.8688 460.087 69.35 454.627 69.35V72.35C460.612 72.35 465.341 70.7146 468.497 67.1728L466.257 65.1772ZM454.627 69.35C450.794 69.35 447.278 68.448 444.052 66.6498L442.591 69.2702C446.278 71.3253 450.299 72.35 454.627 72.35V69.35ZM444.077 66.6643C440.927 64.8266 438.392 62.1974 436.474 58.7332L433.849 60.1867C436.011 64.0893 438.916 67.1267 442.566 69.2557L444.077 66.6643ZM436.482 58.7488C434.633 55.3152 433.687 51.3163 433.687 46.71H430.687C430.687 51.737 431.723 56.2382 433.841 60.1712L436.482 58.7488ZM433.687 46.71C433.687 42.1031 434.634 38.1367 436.478 34.7647L433.846 33.3253C431.723 37.2066 430.687 41.6836 430.687 46.71H433.687ZM436.474 34.7717C438.391 31.3108 440.92 28.7148 444.061 26.935L442.582 24.325C438.923 26.3985 436.013 29.4125 433.849 33.3183L436.474 34.7717ZM444.068 26.931C447.292 25.0813 450.802 24.155 454.627 24.155V21.155C450.291 21.155 446.264 22.212 442.575 24.3289L444.068 26.931ZM454.627 24.155C459.533 24.155 463.04 25.4187 465.392 27.7218L467.491 25.5782C464.403 22.5547 460.033 21.155 454.627 21.155V24.155ZM467.942 26.65V6.93H464.942V26.65H467.942ZM466.442 8.43H485.652V5.43H466.442V8.43ZM459.217 57.39C461.835 57.39 464.062 56.4283 465.775 54.509L463.538 52.511C462.418 53.765 461.018 54.39 459.217 54.39V57.39ZM465.793 54.4894C467.512 52.4945 468.282 49.8388 468.282 46.71H465.282C465.282 49.3612 464.634 51.2389 463.52 52.5306L465.793 54.4894ZM468.282 46.71C468.282 43.5849 467.514 40.943 465.775 38.996L463.538 40.994C464.633 42.2204 465.282 44.0551 465.282 46.71H468.282ZM465.775 38.996C464.062 37.0767 461.835 36.115 459.217 36.115V39.115C461.018 39.115 462.418 39.74 463.538 40.994L465.775 38.996ZM459.217 36.115C456.598 36.115 454.371 37.0767 452.658 38.996L454.895 40.994C456.015 39.74 457.415 39.115 459.217 39.115V36.115ZM452.658 38.996C450.919 40.943 450.152 43.5849 450.152 46.71H453.152C453.152 44.0551 453.801 42.2204 454.895 40.994L452.658 38.996ZM450.152 46.71C450.152 49.8388 450.921 52.4945 452.64 54.4894L454.913 52.5306C453.799 51.2389 453.152 49.3612 453.152 46.71H450.152ZM452.658 54.509C454.371 56.4283 456.598 57.39 459.217 57.39V54.39C457.415 54.39 456.015 53.765 454.895 52.511L452.658 54.509ZM504.783 67.79L504.098 69.1241L504.109 69.1298L504.12 69.1353L504.783 67.79ZM495.178 59.205L493.909 60.0053L493.915 60.0141L495.178 59.205ZM495.178 34.3L496.441 35.1092L496.447 35.1003L495.178 34.3ZM504.783 25.715L504.12 24.3697L504.112 24.3734L504.783 25.715ZM532.663 25.715L531.992 27.0567L532 27.0603L532.663 25.715ZM542.268 34.3L540.991 35.0861L540.998 35.0977L541.005 35.1091L542.268 34.3ZM542.268 59.205L541 58.4047L540.996 58.41L542.268 59.205ZM532.663 67.79L533.334 69.1317L533.341 69.128L532.663 67.79ZM524.163 53.51L525.282 54.509L525.291 54.4993L525.299 54.4894L524.163 53.51ZM513.283 53.51L512.147 54.4894L512.156 54.4993L512.164 54.509L513.283 53.51ZM518.723 69.35C513.769 69.35 509.354 68.3715 505.447 66.4447L504.12 69.1353C508.486 71.2885 513.364 72.35 518.723 72.35V69.35ZM505.469 66.4559C501.608 64.472 498.612 61.7851 496.441 58.3959L493.915 60.0141C496.391 63.8783 499.798 66.9147 504.098 69.1241L505.469 66.4559ZM496.447 58.4047C494.285 54.9772 493.193 51.0932 493.193 46.71H490.193C490.193 51.6201 491.425 56.0661 493.91 60.0053L496.447 58.4047ZM493.193 46.71C493.193 42.3266 494.285 38.4752 496.441 35.1091L493.915 33.4909C491.425 37.3782 490.193 41.8001 490.193 46.71H493.193ZM496.447 35.1003C498.617 31.6598 501.607 28.9802 505.454 27.0566L504.112 24.3734C499.8 26.5298 496.386 29.5735 493.91 33.4997L496.447 35.1003ZM505.447 27.0603C509.354 25.1335 513.769 24.155 518.723 24.155V21.155C513.364 21.155 508.486 22.2165 504.12 24.3697L505.447 27.0603ZM518.723 24.155C523.737 24.155 528.149 25.1348 531.992 27.0566L533.334 24.3734C529.018 22.2152 524.136 21.155 518.723 21.155V24.155ZM532 27.0603C535.901 28.9841 538.882 31.6594 540.991 35.0861L543.546 33.5139C541.121 29.5739 537.699 26.5259 533.327 24.3697L532 27.0603ZM541.005 35.1091C543.161 38.4752 544.253 42.3266 544.253 46.71H547.253C547.253 41.8001 546.022 37.3782 543.531 33.4909L541.005 35.1091ZM544.253 46.71C544.253 51.0933 543.161 54.9772 541 58.4047L543.537 60.0053C546.022 56.0661 547.253 51.6201 547.253 46.71H544.253ZM540.996 58.41C538.886 61.7855 535.899 64.4681 531.985 66.452L533.341 69.128C537.7 66.9186 541.117 63.8778 543.54 60L540.996 58.41ZM531.992 66.4484C528.149 68.3702 523.737 69.35 518.723 69.35V72.35C524.136 72.35 529.018 71.2898 533.334 69.1316L531.992 66.4484ZM518.723 57.39C521.342 57.39 523.568 56.4283 525.282 54.509L523.044 52.511C521.925 53.765 520.525 54.39 518.723 54.39V57.39ZM525.299 54.4894C527.019 52.4945 527.788 49.8388 527.788 46.71H524.788C524.788 49.3612 524.141 51.2389 523.027 52.5306L525.299 54.4894ZM527.788 46.71C527.788 43.5849 527.021 40.943 525.282 38.996L523.044 40.994C524.139 42.2204 524.788 44.0551 524.788 46.71H527.788ZM525.282 38.996C523.568 37.0767 521.342 36.115 518.723 36.115V39.115C520.525 39.115 521.925 39.74 523.044 40.994L525.282 38.996ZM518.723 36.115C516.105 36.115 513.878 37.0767 512.164 38.996L514.402 40.994C515.522 39.74 516.922 39.115 518.723 39.115V36.115ZM512.164 38.996C510.426 40.943 509.658 43.5849 509.658 46.71H512.658C512.658 44.0551 513.307 42.2204 514.402 40.994L512.164 38.996ZM509.658 46.71C509.658 49.8388 510.427 52.4945 512.147 54.4894L514.419 52.5306C513.306 51.2389 512.658 49.3612 512.658 46.71H509.658ZM512.164 54.509C513.878 56.4283 516.105 57.39 518.723 57.39V54.39C516.922 54.39 515.522 53.765 514.402 52.511L512.164 54.509ZM549.386 10.5V9H547.721L547.894 10.6554L549.386 10.5ZM572.336 10.5L573.828 10.6554L574 9H572.336V10.5ZM568.511 47.22V48.72H569.862L570.003 47.3754L568.511 47.22ZM553.211 47.22L551.719 47.3754L551.859 48.72H553.211V47.22ZM552.786 67.875L551.755 68.9647L552.786 67.875ZM552.786 53.51L553.784 54.6294L553.792 54.622L553.801 54.6145L552.786 53.51ZM568.936 53.51L567.921 54.6145L567.929 54.622L567.937 54.6294L568.936 53.51ZM568.936 67.875L569.966 68.9647L568.936 67.875ZM549.386 12H572.336V9H549.386V12ZM570.844 10.3446L567.019 47.0646L570.003 47.3754L573.828 10.6554L570.844 10.3446ZM568.511 45.72H553.211V48.72H568.511V45.72ZM554.703 47.0646L550.878 10.3446L547.894 10.6554L551.719 47.3754L554.703 47.0646ZM560.861 69.35C557.9 69.35 555.595 68.4682 553.816 66.7853L551.755 68.9647C554.169 71.2485 557.248 72.35 560.861 72.35V69.35ZM553.816 66.7853C552.013 65.0793 551.141 63.0624 551.141 60.65H548.141C548.141 63.9042 549.365 66.704 551.755 68.9647L553.816 66.7853ZM551.141 60.65C551.141 58.1736 552.017 56.2057 553.784 54.6294L551.787 52.3906C549.361 54.5543 548.141 57.3464 548.141 60.65H551.141ZM553.801 54.6145C555.578 52.9812 557.888 52.12 560.861 52.12V49.12C557.26 49.12 554.187 50.1854 551.771 52.4055L553.801 54.6145ZM560.861 52.12C563.833 52.12 566.143 52.9812 567.921 54.6145L569.951 52.4055C567.535 50.1854 564.461 49.12 560.861 49.12V52.12ZM567.937 54.6294C569.704 56.2057 570.581 58.1736 570.581 60.65H573.581C573.581 57.3464 572.36 54.5543 569.934 52.3906L567.937 54.6294ZM570.581 60.65C570.581 63.0624 569.708 65.0793 567.905 66.7853L569.966 68.9647C572.356 66.704 573.581 63.9042 573.581 60.65H570.581ZM567.905 66.7853C566.126 68.4682 563.821 69.35 560.861 69.35V72.35C564.473 72.35 567.552 71.2485 569.966 68.9647L567.905 66.7853Z" fill="white"/>
</svg>
