<svg width="26" height="34" viewBox="0 0 26 34" fill="none" xmlns="http://www.w3.org/2000/svg">
<g clip-path="url(#clip0_63_104)">
<path d="M17.6319 18.2816V31.3432C17.6319 32.5168 16.6713 33.4684 15.4867 33.4684H2.6669C1.48225 33.4684 0.521729 32.5168 0.521729 31.3432V3.40571C0.521729 2.23213 1.48225 1.28058 2.6669 1.28058H9.87082" stroke="#0091DD" stroke-linecap="round" stroke-linejoin="round"/>
<path d="M8.98715 2.97434H5.70216C5.12584 2.97434 4.65839 2.51125 4.65839 1.94032V1.28058H10.3575" stroke="#0091DD" stroke-linecap="round" stroke-linejoin="round"/>
<path d="M0.521729 29.3577H17.6319" stroke="#0091DD" stroke-linecap="round" stroke-linejoin="round"/>
<path opacity="0.35" d="M14.635 21.0855H3.51214C3.13373 21.0855 2.82697 21.3894 2.82697 21.7643V24.1368C2.82697 24.5117 3.13373 24.8156 3.51214 24.8156H14.635C15.0134 24.8156 15.3202 24.5117 15.3202 24.1368V21.7643C15.3202 21.3894 15.0134 21.0855 14.635 21.0855Z" fill="#0091DD"/>
<path opacity="0.35" d="M13.1366 16.4927L10.8826 17.2032C10.287 17.3872 9.63388 17.2349 9.19844 16.7909C8.80783 16.3975 8.66055 15.833 8.77581 15.3001H3.51855C3.14074 15.3001 2.83337 15.6046 2.83337 15.9789V18.3451C2.83337 18.7193 3.14074 19.0238 3.51855 19.0238H14.635C15.0128 19.0238 15.3202 18.7193 15.3202 18.3451V17.3301C14.5582 17.1461 13.8218 16.8606 13.1302 16.4927H13.1366Z" fill="#0091DD"/>
<path opacity="0.35" d="M9.51221 13.0417C8.86546 11.957 8.44923 10.7707 8.28915 9.52101H3.51855C3.14074 9.52101 2.83337 9.82551 2.83337 10.1998V12.566C2.83337 12.9402 3.14074 13.2447 3.51855 13.2447H9.44177L9.51221 13.0417Z" fill="#0091DD"/>
<path d="M17.5871 0.703308C13.3287 0.703308 9.87085 4.13523 9.87085 8.34743C9.87085 10.0222 10.4151 11.57 11.3437 12.8261L10.3831 15.668L13.3479 14.7292C14.571 15.5285 16.0246 15.9915 17.5935 15.9915C21.8454 15.9915 25.3097 12.5596 25.3097 8.34743C25.3097 4.13523 21.8454 0.703308 17.5871 0.703308Z" fill="#90CF3F"/>
<path d="M22.0759 11.5002C21.8902 12.0204 21.1538 12.4518 20.5583 12.5787C20.1549 12.6611 19.6298 12.7309 17.856 12.0014C15.5892 11.0689 14.1292 8.78514 14.0139 8.63924C13.905 8.49333 13.0982 7.4276 13.0982 6.33014C13.0982 5.23269 13.6617 4.69982 13.8858 4.47145C14.0715 4.28114 14.3789 4.19867 14.6735 4.19867C14.7695 4.19867 14.8528 4.19867 14.9296 4.20501C15.1537 4.2177 15.269 4.23039 15.4227 4.58563C15.6084 5.02969 16.063 6.12714 16.1142 6.24133C16.1719 6.35552 16.2231 6.50777 16.1463 6.65367C16.0758 6.80592 16.0118 6.8757 15.8965 7.00257C15.7813 7.13579 15.6724 7.23094 15.5635 7.3705C15.4611 7.49103 15.3394 7.62425 15.4739 7.84628C15.6084 8.06831 16.0566 8.79783 16.7226 9.38779C17.5871 10.149 18.285 10.3901 18.5348 10.4916C18.7205 10.5677 18.9446 10.5487 19.0791 10.4091C19.252 10.2252 19.4633 9.92066 19.681 9.61616C19.8347 9.40048 20.0268 9.3751 20.2317 9.45123C20.443 9.52101 21.5444 10.0602 21.7685 10.1744C21.9927 10.2886 22.1463 10.3393 22.1976 10.4345C22.2488 10.5297 22.2488 10.9737 22.0631 11.4939" fill="white"/>
</g>
<defs>
<clipPath id="clip0_63_104">
<rect width="25.1017" height="33.0886" fill="white" transform="translate(0.201538 0.703308)"/>
</clipPath>
</defs>
</svg>
