<svg width="30" height="27" viewBox="0 0 30 27" fill="none" xmlns="http://www.w3.org/2000/svg">
<path d="M14.234 2.7889C14.234 2.09231 14.234 1.44477 14.234 0.807045C14.234 0.522521 14.3125 0.267431 14.5774 0.110453C15.0484 -0.183883 15.6174 0.139885 15.637 0.728556C15.6567 1.26817 15.637 1.8176 15.637 2.36702C15.637 2.49457 15.637 2.62211 15.637 2.79872H16.0099C17.9132 2.79872 19.8264 2.79872 21.7298 2.79872C23.9079 2.79872 25.3992 4.29001 25.3992 6.47791C25.3992 10.5495 25.3992 14.6114 25.3992 18.683C25.3992 20.8415 23.898 22.3426 21.7396 22.3524C20.6604 22.3524 19.5811 22.3622 18.5019 22.3524C18.1879 22.3524 18.0211 22.4505 17.8544 22.7056C17.1381 23.8143 16.4023 24.9033 15.6665 26.0022C15.1759 26.7282 14.6952 26.738 14.2144 26.012C13.4688 24.8935 12.7231 23.7848 11.9873 22.6663C11.8401 22.4407 11.6929 22.3426 11.4084 22.3524C10.3194 22.372 9.23033 22.3622 8.14129 22.3524C5.9534 22.3524 4.4621 20.8513 4.4621 18.6732C4.4621 14.6016 4.4621 10.5397 4.4621 6.4681C4.4621 4.29983 5.9534 2.80853 8.11185 2.79872C10.0152 2.79872 11.9284 2.79872 13.8318 2.79872H14.2242L14.234 2.7889ZM24.0158 15.3374V14.9646C24.0158 12.1488 24.0158 9.34277 24.0158 6.52696C24.0158 5.04547 23.1622 4.18209 21.6905 4.18209C17.1872 4.18209 12.6839 4.18209 8.18053 4.18209C6.72848 4.18209 5.85528 5.04547 5.85528 6.49753C5.85528 9.32315 5.85528 12.1488 5.85528 14.9646V15.3374H24.0158ZM23.9962 16.7698H5.8651C5.8651 17.3977 5.88472 18.006 5.8651 18.6143C5.80623 20.037 6.86584 20.9984 8.17072 20.9494C9.44618 20.9003 10.7216 20.9494 11.9971 20.9396C12.3601 20.9396 12.6152 21.0671 12.8114 21.3713C13.4393 22.3426 14.0869 23.2943 14.7344 24.2558C14.7933 24.3539 14.8619 24.4422 14.9502 24.5599C15.6665 23.4905 16.3532 22.4799 17.0204 21.44C17.2559 21.0769 17.5404 20.9298 17.9623 20.9298C19.277 20.9396 20.6015 20.9494 21.9162 20.9298C23.0248 20.92 23.8882 20.1645 23.9863 19.0558C24.0452 18.3102 23.9962 17.5547 23.9962 16.7698Z" fill="#0091DD"/>
<path d="M1.67567 10.4805C1.67567 11.3635 1.67567 12.2465 1.67567 13.1295C1.67567 13.6397 1.41077 13.9536 0.998702 13.9634C0.56701 13.9732 0.292297 13.6495 0.292297 13.1295C0.292297 11.3537 0.292297 9.57784 0.292297 7.80201C0.292297 7.31145 0.576821 6.98769 0.98889 6.98769C1.41077 6.98769 1.67567 7.30164 1.67567 7.80201C1.67567 8.69483 1.67567 9.58765 1.67567 10.4805Z" fill="#90CF3F"/>
<path d="M28.2048 10.4614C28.2048 9.57843 28.2048 8.69543 28.2048 7.81242C28.2048 7.29243 28.4893 6.96866 28.9112 6.97847C29.3233 6.98828 29.5882 7.31205 29.5882 7.81242C29.5882 9.58824 29.5882 11.3641 29.5882 13.1399C29.5882 13.6403 29.3135 13.9542 28.8916 13.9542C28.4795 13.9542 28.2048 13.6403 28.195 13.1399C28.195 12.2471 28.195 11.3543 28.195 10.4614H28.2048Z" fill="#90CF3F"/>
<path d="M12.1444 10.461C12.1444 11.2361 11.5263 11.864 10.761 11.864C9.9859 11.864 9.3678 11.2459 9.3678 10.4708C9.3678 9.6957 9.9859 9.0776 10.7512 9.0776C11.5164 9.0776 12.1444 9.6957 12.1444 10.4708V10.461Z" fill="#90CF3F"/>
<path d="M17.7366 10.4811C17.7366 9.70601 18.3351 9.0781 19.1101 9.06828C19.8754 9.05847 20.5131 9.67658 20.5131 10.4517C20.5131 11.2267 19.9048 11.8547 19.1396 11.8645C18.3743 11.8645 17.7464 11.2562 17.7366 10.4811Z" fill="#90CF3F"/>
</svg>
