<svg width="20" height="34" viewBox="0 0 20 34" fill="none" xmlns="http://www.w3.org/2000/svg">
<path d="M17.3523 0.876205H2.64908C1.54193 0.876205 0.644409 1.6958 0.644409 2.70682V31.5094C0.644409 32.5204 1.54193 33.34 2.64908 33.34H17.3523C18.4595 33.34 19.357 32.5204 19.357 31.5094V2.70682C19.357 1.6958 18.4595 0.876205 17.3523 0.876205Z" stroke="#0091DD" stroke-linecap="round" stroke-linejoin="round"/>
<path d="M3.48378 13.5281C3.53168 13.3032 3.55904 13.072 3.62062 12.8533C3.81219 12.1598 4.16797 11.56 4.7769 11.0914C5.2832 10.7041 5.99476 10.7166 6.46685 11.1477C7.02104 11.6475 7.57523 12.1536 8.12942 12.6659C8.6152 13.1157 8.63572 13.7905 8.16363 14.2591C7.97206 14.4528 7.75996 14.6339 7.55471 14.8151C7.52734 14.8401 7.48629 14.8589 7.45892 14.8714C8.0268 15.846 8.74519 16.6645 9.70306 17.2893C10.0178 17.4955 10.353 17.6642 10.6746 17.8578C10.7362 17.8953 10.7704 17.8828 10.8183 17.8391C11.0099 17.6642 11.2014 17.4892 11.393 17.3143C11.9335 16.8269 12.6861 16.8269 13.2198 17.3143C13.7398 17.7891 14.2529 18.2764 14.7866 18.7388C15.3339 19.2136 15.2929 19.8696 14.9166 20.3507C14.3966 21.0192 13.6782 21.3754 12.7888 21.4628C12.2003 21.5191 11.6325 21.4254 11.0714 21.2817C9.88779 20.9818 8.8273 20.4382 7.86943 19.7447C6.54895 18.7888 5.39951 17.6766 4.44849 16.4021C4.02429 15.8335 3.69588 15.215 3.54536 14.5277C3.51115 14.3778 3.49062 14.2278 3.46326 14.0779C3.46326 13.8967 3.46326 13.7155 3.46326 13.5343L3.48378 13.5281ZM4.20902 13.8467C4.22955 13.9842 4.24323 14.1779 4.27744 14.3653C4.40744 15.0026 4.72216 15.5711 5.12584 16.1022C6.0016 17.2643 7.06209 18.2764 8.25942 19.1636C9.13518 19.8072 10.093 20.3195 11.1741 20.6131C11.7488 20.7693 12.3372 20.8693 12.9461 20.7693C13.555 20.6694 14.0271 20.382 14.3692 19.9196C14.554 19.6697 14.5266 19.4385 14.294 19.2261C13.7671 18.745 13.2472 18.2702 12.7203 17.7891C12.4603 17.5517 12.1661 17.5517 11.9061 17.7891C11.6804 17.9953 11.4546 18.2015 11.2356 18.4014C11.0099 18.6076 10.7499 18.6513 10.4762 18.5076C10.1341 18.3327 9.792 18.1515 9.47043 17.9516C8.30731 17.2331 7.44524 16.2709 6.79526 15.14C6.65842 14.8964 6.69947 14.6652 6.91157 14.4715C7.14419 14.2591 7.38366 14.0467 7.61628 13.828C7.84206 13.6156 7.84891 13.3406 7.62997 13.1407C7.07577 12.6346 6.52158 12.1286 5.96739 11.6225C5.76897 11.4413 5.48846 11.4288 5.26952 11.5913C5.17373 11.6662 5.07794 11.7412 4.99584 11.8287C4.46217 12.3972 4.24323 13.0657 4.20902 13.853V13.8467Z" fill="#90CF3F"/>
<path d="M14.164 14.9963C14.164 15.19 14.0134 15.34 13.8287 15.3524C13.6303 15.3649 13.4866 15.2337 13.4319 15.0463C13.3703 14.7964 13.3087 14.5402 13.1993 14.3091C12.7272 13.3531 11.9267 12.7408 10.8046 12.4784C10.7362 12.4597 10.6609 12.4534 10.5925 12.4472C10.3872 12.416 10.2504 12.2473 10.2778 12.0723C10.3051 11.8849 10.4899 11.7599 10.702 11.7912C12.0635 12.0036 13.0624 12.6846 13.7329 13.778C13.9519 14.1404 14.1024 14.5277 14.164 14.9401C14.164 14.9651 14.1708 14.9963 14.1708 15.0088L14.164 14.9963Z" fill="#90CF3F"/>
<path d="M10.312 13.147C10.5309 13.2094 10.7567 13.2594 10.9619 13.3406C11.8446 13.7093 12.4193 14.3216 12.6587 15.1838C12.6793 15.2525 12.6929 15.3212 12.6861 15.3899C12.6724 15.5586 12.5219 15.6898 12.344 15.6961C12.1661 15.7023 12.0088 15.5836 11.9677 15.4149C11.8035 14.6589 11.2972 14.1654 10.5309 13.8905C10.4351 13.853 10.3257 13.8405 10.223 13.8217C10.0451 13.7842 9.91514 13.628 9.93567 13.4656C9.95619 13.2844 10.1136 13.1657 10.312 13.1657V13.1407V13.147Z" fill="#90CF3F"/>
<path d="M5.17377 0.876205H14.8345V1.69467C14.8345 2.18825 14.3966 2.58187 13.863 2.58187H6.14532C5.60481 2.58187 5.17377 2.182 5.17377 1.69467V0.876205V0.876205Z" stroke="#0091DD" stroke-linecap="round" stroke-linejoin="round"/>
<path d="M0.644409 29.1914H19.357" stroke="#0091DD" stroke-linecap="round" stroke-linejoin="round"/>
</svg>
