<svg width="25" height="24" viewBox="0 0 25 24" fill="none" xmlns="http://www.w3.org/2000/svg">
<path d="M20.6167 0.737747H4.50572C2.68087 0.737747 1.20154 2.21708 1.20154 4.04193V20.1529C1.20154 21.9778 2.68087 23.4571 4.50572 23.4571H20.6167C22.4415 23.4571 23.9209 21.9778 23.9209 20.1529V4.04193C23.9209 2.21708 22.4415 0.737747 20.6167 0.737747Z" stroke="#0091DD" stroke-linecap="round" stroke-linejoin="round"/>
<path d="M20.6167 0.737747H4.50572C2.6783 0.737747 1.20154 2.2145 1.20154 4.04193V3.85425C1.20154 5.67674 2.6783 7.15843 4.50572 7.15843H20.6167C22.4392 7.15843 23.9209 5.68167 23.9209 3.85425V4.04193C23.9209 2.21944 22.4441 0.737747 20.6167 0.737747V0.737747Z" stroke="#0091DD" stroke-linecap="round" stroke-linejoin="round"/>
<path d="M10.0914 12.3443C10.7734 12.3443 11.3262 11.7914 11.3262 11.1095C11.3262 10.4276 10.7734 9.87476 10.0914 9.87476C9.4095 9.87476 8.85669 10.4276 8.85669 11.1095C8.85669 11.7914 9.4095 12.3443 10.0914 12.3443Z" fill="#90CF3F"/>
<path d="M15.0304 12.3443C15.7123 12.3443 16.2651 11.7914 16.2651 11.1095C16.2651 10.4276 15.7123 9.87476 15.0304 9.87476C14.3485 9.87476 13.7957 10.4276 13.7957 11.1095C13.7957 11.7914 14.3485 12.3443 15.0304 12.3443Z" fill="#90CF3F"/>
<path d="M19.9697 12.3443C20.6516 12.3443 21.2044 11.7914 21.2044 11.1095C21.2044 10.4276 20.6516 9.87476 19.9697 9.87476C19.2877 9.87476 18.7349 10.4276 18.7349 11.1095C18.7349 11.7914 19.2877 12.3443 19.9697 12.3443Z" fill="#90CF3F"/>
<path d="M5.15278 16.2953C5.83471 16.2953 6.38752 15.7425 6.38752 15.0606C6.38752 14.3787 5.83471 13.8258 5.15278 13.8258C4.47084 13.8258 3.91803 14.3787 3.91803 15.0606C3.91803 15.7425 4.47084 16.2953 5.15278 16.2953Z" fill="#90CF3F"/>
<path d="M10.0914 16.2953C10.7734 16.2953 11.3262 15.7425 11.3262 15.0606C11.3262 14.3787 10.7734 13.8258 10.0914 13.8258C9.4095 13.8258 8.85669 14.3787 8.85669 15.0606C8.85669 15.7425 9.4095 16.2953 10.0914 16.2953Z" fill="#90CF3F"/>
<path d="M15.0304 16.2953C15.7123 16.2953 16.2651 15.7425 16.2651 15.0606C16.2651 14.3787 15.7123 13.8258 15.0304 13.8258C14.3485 13.8258 13.7957 14.3787 13.7957 15.0606C13.7957 15.7425 14.3485 16.2953 15.0304 16.2953Z" fill="#90CF3F"/>
<path d="M19.9697 16.2953C20.6516 16.2953 21.2044 15.7425 21.2044 15.0606C21.2044 14.3787 20.6516 13.8258 19.9697 13.8258C19.2877 13.8258 18.7349 14.3787 18.7349 15.0606C18.7349 15.7425 19.2877 16.2953 19.9697 16.2953Z" fill="#90CF3F"/>
<path d="M5.15278 20.2467C5.83471 20.2467 6.38752 19.6939 6.38752 19.0119C6.38752 18.33 5.83471 17.7772 5.15278 17.7772C4.47084 17.7772 3.91803 18.33 3.91803 19.0119C3.91803 19.6939 4.47084 20.2467 5.15278 20.2467Z" fill="#90CF3F"/>
<path d="M10.0914 20.2467C10.7734 20.2467 11.3262 19.6939 11.3262 19.0119C11.3262 18.33 10.7734 17.7772 10.0914 17.7772C9.4095 17.7772 8.85669 18.33 8.85669 19.0119C8.85669 19.6939 9.4095 20.2467 10.0914 20.2467Z" fill="#90CF3F"/>
<path d="M15.0304 20.2467C15.7123 20.2467 16.2651 19.6939 16.2651 19.0119C16.2651 18.33 15.7123 17.7772 15.0304 17.7772C14.3485 17.7772 13.7957 18.33 13.7957 19.0119C13.7957 19.6939 14.3485 20.2467 15.0304 20.2467Z" fill="#90CF3F"/>
</svg>
